# xmcd CD database file
#
# Track frame offsets:
#	150
#	12922
#	64915
#	93165
#	117160
#	132267
#	172725
#	216957
#	229770
#	283142
#
# Disc length: 4120 seconds
#
# Revision: 1
# Processed by: cddbd v1.5.1PL2 Copyright (c) Steve Scherf et al.
# Submitted via: CDex 1.51
#
DISCID=8610160a
DTITLE=Miles Davis - The Columbia Years 1955-1985 [CD1]
DYEAR=1988
DGENRE=Jazz
TTITLE0=Generique
TTITLE1=All Blues
TTITLE2=Eighty-One
TTITLE3=Blues For Pablo
TTITLE4=Summertime
TTITLE5=Stright, No Chaser
TTITLE6=Footprints
TTITLE7=Florence Sur Les Champs Elysees
TTITLE8=I Thought About You
TTITLE9=Someday My Prince Will Come
EXTD=YEAR: 1988
EXTT0=
EXTT1=
EXTT2=
EXTT3=
EXTT4=
EXTT5=
EXTT6=
EXTT7=
EXTT8=
EXTT9=
PLAYORDER=
